<svg xmlns="http://www.w3.org/2000/svg" xml:space="preserve" id="Layer_1" x="0" y="0" style="enable-background:new 0 0 1366 305.42" version="1.1" viewBox="0 0 1366 305.42"><style>.st1{fill:#217d94}.st2{fill:#6fb643}</style><path d="M326.65 186.14c-1.35 42.28-18.69 71.18-50.96 90.07-33.32 19.51-67.59 18.87-100.28-1.38-33.68-20.87-49.7-52.51-47.53-92.76 1.12-20.84 9.83-39.26 21.64-56.07 12.13-17.28 24.55-34.36 36.76-51.58 11.69-16.5 23.3-33.05 34.89-49.63 3.93-5.62 7.98-5.49 11.73-.14 10.78 15.35 21.3 30.88 32.07 46.23 9.52 13.58 19.16 27.08 28.89 40.51 11.32 15.62 23.25 30.95 28.21 50.17 2.39 9.26 3.54 18.83 4.58 24.58zm-99.5-58.91c-29.93-.62-56.28 24.75-56.88 54.76-.69 34.4 23.07 60.58 55.63 61.3 31.19.69 57.3-24.42 57.99-55.78.76-33.71-23.61-59.59-56.74-60.28zm62.57 56.51c0 4.24-.11 8.48.06 12.71.06 1.44.98 4.12 1.25 4.09 4.22-.51 11.93-1.04 12.04-2.22.88-9.39.85-18.99-.34-28.33-.19-1.49-7.61-2.07-11.73-2.77-.17-.03-1.14 3.03-1.21 4.68-.19 3.93-.06 7.89-.07 11.84zm-105.54 68.83c.82.71 1.64 1.41 2.46 2.12 2.19-3.35 4.7-6.55 6.36-10.15.42-.9-1.69-3.3-2.98-4.68-5.08-5.44-10.47-10.58-15.42-16.14-4.67-5.25-7.18.2-9.53 2.29-1.31 1.16-1.48 5.92-.25 7.38 5.21 6.19 11.13 11.78 16.83 17.53.7.71 1.68 1.11 2.53 1.65zm101.45-102.95c1.25-1.72 3.84-4.48 5.34-7.77.56-1.24-1-4.1-2.32-5.5-5.44-5.75-11.05-11.37-16.91-16.67-1.03-.93-4.27-.87-5.32.08-2.3 2.06-5.84 6.79-5.4 7.3 6.53 7.57 13.63 14.63 20.63 21.78.27.28.9.2 3.98.78zm-115.46.44c1.91-1.12 2.94-1.46 3.62-2.16 6.23-6.44 12.62-12.76 18.34-19.66.74-.9-1.56-5.36-3.38-7.22-1.36-1.39-5.28-2.47-6.26-1.6-6.02 5.39-11.59 11.3-17.15 17.21-1.22 1.29-2.9 4-2.41 4.77 2 3.15 4.75 5.8 7.24 8.66zm97.08 104.32c.74-.73 1.48-1.46 2.21-2.19.53-.2 1.2-.24 1.57-.61 6.54-6.55 13.28-12.92 19.24-19.98.76-.91-2.22-5.83-4.27-8.14-.93-1.05-4.62-1.18-5.72-.19-5.79 5.25-11.19 10.94-16.62 16.59-1.25 1.3-3.24 3.65-2.84 4.49 1.72 3.54 4.22 6.71 6.43 10.03zm-102.97-70.53h-.1c0-4.05.24-8.12-.12-12.13-.15-1.65-1.72-4.61-2.38-4.53-4.22.48-10.8-3.22-11.3 5.15-.38 6.24.36 12.56-.19 18.77-.68 7.63 1.72 11.53 9.53 9.64 1.77-.43 4.07-2.76 4.36-4.51.64-4.04.2-8.25.2-12.39zm63.36 66.76c-3.87 0-7.77-.24-11.61.11-1.67.15-4.63 1.54-4.61 2.29.13 4.36-2.76 10.76 5.19 11.16 6.12.31 12.28-.01 18.41.09 4.63.08 8.27.02 8.97-6.55.8-7.53-2.9-7.63-8.14-7.13-2.72.26-5.47.05-8.21.03zm-.18-130.36c3.88 0 7.78.26 11.62-.12 1.66-.17 4.52-1.62 4.55-2.56.14-4.4 2.18-10.46-5.41-10.76-6.61-.26-13.26.23-19.85-.21-5.75-.38-7.33 2.17-7.88 7.62-.65 6.43 2.62 6.4 7.04 6.09 3.3-.24 6.63-.05 9.93-.06z" class="st1"/><path d="M104.54 103.64c0-4.54.38-9.12-.19-13.58-.23-1.79-2.64-4.71-3.88-4.62-1.81.13-4.43 2.23-4.95 4.02-.85 2.94-.25 6.3-.35 9.48-.04 1.39-.28 2.78-.43 4.17-.99-.85-2.04-1.64-2.95-2.57-13.66-13.9-27.2-27.94-41.12-41.57-1.56-1.53-5.25-.81-7.96-1.13.43 2.48.01 5.79 1.43 7.3 13.57 14.4 27.46 28.49 41.23 42.7.82.84 1.38 1.94 2.06 2.92-1.09.08-2.18.23-3.28.23-3.31.02-6.7-.44-9.91.14-1.57.28-3.66 2.29-3.95 3.81-.24 1.29 1.66 3.14 2.85 4.53 2.67 3.12 5.42 6.18 8.26 9.14 9.9 10.3 19.86 20.54 29.76 30.85.65.67 1.34 1.74 1.26 2.54-.06.59-1.32 1.46-2.1 1.52-15.35 1.29-29.86-1.48-43.32-9.4-37.17-21.88-46.07-58.03-47.6-97.9-.19-4.82-.42-9.69.12-14.46.2-1.78 2.51-4.7 3.92-4.74 32.43-.92 63.36 4.18 89.15 26.28 16.5 14.14 23.02 32.98 21.89 54.69-.04.78-1.56 2.1-2.4 2.12-8.33.16-16.66.19-24.99-.03-.92-.02-2.5-1.79-2.57-2.83-.29-4.52-.12-9.07-.12-13.6.04-.01.09-.01.14-.01zM336 120.21c-2.08 0-4.23-.34-6.24.06-9.25 1.84-10.61-2.56-10.04-10.94 2-29.51 21.21-52.88 53.3-63.95 18.3-6.32 37.05-9.48 56.36-8.41 1.94.11 5.29 2.76 5.36 4.35.98 21.37-.21 42.55-7.62 62.88-11.52 31.63-31.74 53.37-65.66 58.94-5.91.97-12.07.41-18.12.39-.87 0-1.75-.92-2.62-1.41.56-.7.99-1.65 1.71-2.06 13.76-7.79 24.68-18.58 33.41-31.9 2.23-3.4 5.58-6.02 8.14-9.23 1.02-1.28 2.22-3.73 1.68-4.68-.86-1.53-3-2.93-4.77-3.18-3.95-.56-8-.37-12.01-.49 2.77-3.12 5.47-6.31 8.32-9.35 11.33-12.05 22.82-23.95 33.95-36.2 1.33-1.46.76-4.71 1.08-7.14-2.56.22-6.16-.61-7.54.81-13.64 14.03-26.91 28.43-40.31 42.71-.63.67-1.47 1.12-2.21 1.67-.15-.89-.41-1.78-.42-2.67-.02-3.28.78-6.8-.14-9.77-.7-2.27-3.54-3.86-5.42-5.76-1.35 1.79-3.79 3.53-3.87 5.39-.42 8.76-.06 17.57-.37 26.34-.04 1.24-2.16 3.28-3.47 3.42-4.12.46-8.32.18-12.48.18z" class="st2"/><path d="M364.52 231.84c0-11.49 8.85-20.55 20.13-20.6 10.79-.04 20.37 9.41 20.26 20.01-.11 11.85-9.18 21.37-20.3 21.3-11.12-.06-20.08-9.31-20.09-20.71zm19.86 8.06c2.68-3.59 5.88-6.06 5.57-7.94-.39-2.36-3.65-4.22-5.67-6.3-1.99 2.13-5.1 4.03-5.59 6.47-.33 1.73 2.91 4.18 5.69 7.77zm-330.45-.44c-9.59-.16-17.21-7.8-17.08-17.12.14-9.84 8.2-17.65 18.04-17.48 9.24.17 16.59 7.92 16.43 17.32-.17 10.02-7.64 17.44-17.39 17.28zm349.59-57.56c-1.02 6.93-4.63 11.46-11.48 11.35-6.55-.11-10.66-4.34-10.54-11.15.12-7.03 4.02-11.51 11.21-11.38 6.88.11 9.93 4.76 10.81 11.18zM110.65 27.63c.5-7.42 4.23-11.55 11.16-11.55 6.48 0 10.4 4.2 10.37 10.61-.04 6.93-4.23 11.12-11.2 10.96-6.23-.13-9.71-3.88-10.33-10.02zm201.48 42.89c-3.74 2.62-7.22 6.76-11.28 7.49-5.82 1.05-9.52-3.29-9.48-9.48.05-6.25 3.83-10.7 9.69-9.8 3.98.61 7.42 4.85 11.11 7.46-.02 1.45-.03 2.89-.04 4.33zm-160.25 7.2c-4.07-6.11-8.4-9.76-8.04-12.85.38-3.29 5.2-6.04 8.08-9.03 3.02 3.05 7.93 5.78 8.48 9.24.47 2.88-4.19 6.61-8.52 12.64zm-48.24 120.76c-3.32 2.13-6.72 6.01-9.95 5.87-2.75-.11-5.32-4.84-7.97-7.53 2.77-2.81 5.26-7.38 8.4-7.89 2.79-.45 6.28 3.6 9.46 5.66.02 1.29.04 2.59.06 3.89zm1.33 50.07c-5.57 3.51-8.68 7.04-11.37 6.73-2.61-.3-6.84-4.73-6.63-7 .25-2.75 4.25-6.93 6.91-7.16 2.68-.24 5.71 3.6 11.09 7.43zm242.69-54.36c4.88-3.1 7.57-6.18 9.87-5.89 2.32.29 4.24 3.9 6.34 6.06-2.2 2.11-4.21 5.57-6.64 5.91-2.17.3-4.8-2.86-9.57-6.08zm-11.58 59.25c4.2-3.1 6.64-6.25 8.47-5.92 2.43.44 4.38 3.6 6.53 5.6-2.02 2.12-3.81 5.57-6.11 5.96-2.02.35-4.6-2.74-8.89-5.64zM286.66 38.39c-3.94 2.88-6.42 6.03-8.28 5.69-2.18-.4-5.15-3.76-5.28-5.98-.11-1.82 3.33-5.18 5.44-5.41 1.97-.21 4.27 2.83 8.12 5.7zm-102.31-.96c-3.71 2.62-5.92 5.38-7.82 5.18-1.91-.2-4.78-3.28-4.89-5.23-.09-1.66 3.03-4.7 4.97-4.92 1.84-.21 4.01 2.42 7.74 4.97zM68.97 181.05c-4.12 2.7-6.42 5.38-8.45 5.19-1.93-.18-5.18-3.57-4.98-5.18.27-2.14 3.14-5.19 5.21-5.48 1.9-.26 4.21 2.63 8.22 5.47zm205.34 4.5c-.02 26.12-21.47 47.58-47.43 47.47-26.38-.11-46.96-21.14-46.93-47.93.04-27.05 20.91-47.63 48.23-47.56 25.08.05 46.16 22 46.13 48.02zm-68.03 6.23c.01 11.28 9.44 20.48 21.1 20.58 11.42.1 20.11-9.2 20.12-21.53.01-11.88-8.94-21.5-20.01-21.5-12.2 0-21.22 9.55-21.21 22.45zm20.36-40.99c-19.43.21-35.5 15.93-36.07 35.73-.06 1.96 2.41 4 3.71 6.01 1.6-1.73 4.43-3.34 4.62-5.21 1.27-12.98 10.67-24.33 22.78-26.71 12.15-2.39 24.67 4.19 30.39 15.34 1 1.94 4.21 2.69 6.4 4 .43-2.44 1.83-5.22 1.14-7.26-4.27-12.57-18.89-22.05-32.97-21.9z" class="st1"/><path d="M226.8 203.09c-6.55-.02-12.08-5.7-12.05-12.37.04-6.45 6.06-12.21 12.71-12.17 6.44.04 11.86 5.6 11.84 12.13-.03 7.04-5.46 12.43-12.5 12.41z" class="st2"/><path d="M522.76 106.28c-.7 9.64-4.25 17.22-10.67 22.76-6.42 5.54-14.88 8.3-25.37 8.3-11.48 0-20.51-3.86-27.1-11.59-6.58-7.73-9.87-18.34-9.87-31.83v-5.47c0-8.61 1.52-16.2 4.55-22.76 3.03-6.56 7.37-11.59 13.01-15.1s12.19-5.26 19.65-5.26c10.33 0 18.66 2.77 24.97 8.3 6.31 5.54 9.96 13.31 10.95 23.31h-18.45c-.45-5.78-2.06-9.97-4.83-12.58-2.77-2.6-6.98-3.91-12.64-3.91-6.15 0-10.75 2.21-13.81 6.61-3.06 4.41-4.62 11.25-4.71 20.51v6.77c0 9.68 1.47 16.75 4.4 21.22 2.93 4.47 7.56 6.71 13.87 6.71 5.7 0 9.95-1.3 12.76-3.91 2.81-2.6 4.42-6.63 4.83-12.09h18.46zm29.7 29.83h-17.84V41.63h17.84v94.48zm45.28 1.23c-9.76 0-17.71-2.99-23.84-8.98-6.13-5.99-9.2-13.96-9.2-23.93v-1.72c0-6.68 1.29-12.66 3.88-17.93 2.58-5.27 6.24-9.33 10.98-12.18 4.74-2.85 10.14-4.27 16.21-4.27 9.1 0 16.27 2.87 21.5 8.61 5.23 5.74 7.84 13.88 7.84 24.42v7.26h-42.38c.57 4.35 2.31 7.83 5.2 10.46 2.89 2.62 6.55 3.94 10.98 3.94 6.85 0 12.2-2.48 16.05-7.44l8.73 9.78c-2.67 3.77-6.27 6.72-10.83 8.83-4.54 2.1-9.59 3.15-15.12 3.15zm-2.03-54.68c-3.53 0-6.39 1.19-8.58 3.58-2.19 2.39-3.6 5.81-4.21 10.26h24.73v-1.42c-.08-3.95-1.15-7.01-3.2-9.17-2.06-2.17-4.97-3.25-8.74-3.25zm78.05 53.45c-.82-1.6-1.41-3.59-1.78-5.97-4.31 4.8-9.9 7.2-16.79 7.2-6.52 0-11.92-1.89-16.21-5.66-4.29-3.77-6.43-8.53-6.43-14.27 0-7.05 2.61-12.47 7.84-16.24 5.23-3.77 12.78-5.68 22.67-5.72h8.18v-3.81c0-3.08-.79-5.54-2.37-7.38-1.58-1.85-4.07-2.77-7.47-2.77-2.99 0-5.34.72-7.04 2.15-1.7 1.44-2.55 3.4-2.55 5.9h-17.78c0-3.85 1.19-7.42 3.57-10.7 2.38-3.28 5.74-5.85 10.09-7.72s9.23-2.8 14.64-2.8c8.2 0 14.71 2.06 19.53 6.18 4.82 4.12 7.23 9.91 7.23 17.38v28.85c.04 6.32.92 11.09 2.64 14.33v1.05h-17.97zm-14.7-12.36c2.62 0 5.04-.58 7.26-1.75 2.21-1.17 3.85-2.74 4.92-4.71v-11.44h-6.64c-8.9 0-13.64 3.08-14.21 9.23l-.06 1.05c0 2.21.78 4.04 2.34 5.47 1.55 1.43 3.69 2.15 6.39 2.15zm60.04-54.19.55 7.69c4.76-5.95 11.13-8.92 19.13-8.92 7.05 0 12.3 2.07 15.75 6.21 3.44 4.14 5.21 10.33 5.29 18.58v43h-17.78V93.55c0-3.77-.82-6.51-2.46-8.21-1.64-1.7-4.37-2.55-8.18-2.55-5 0-8.76 2.13-11.26 6.4v46.93h-17.78V69.56h16.74z" class="st1"/><path d="M841.87 61.5h-27.43v74.61h-18.45V61.5h-27.07V46.55h72.95V61.5zm39.99 75.84c-9.76 0-17.71-2.99-23.83-8.98-6.13-5.99-9.2-13.96-9.2-23.93v-1.72c0-6.68 1.29-12.66 3.88-17.93 2.58-5.27 6.24-9.33 10.98-12.18 4.74-2.85 10.14-4.27 16.21-4.27 9.1 0 16.27 2.87 21.5 8.61 5.23 5.74 7.84 13.88 7.84 24.42v7.26h-42.38c.57 4.35 2.31 7.83 5.2 10.46 2.89 2.62 6.55 3.94 10.98 3.94 6.85 0 12.2-2.48 16.05-7.44l8.73 9.78c-2.67 3.77-6.27 6.72-10.83 8.83-4.55 2.1-9.6 3.15-15.13 3.15zm-2.03-54.68c-3.53 0-6.39 1.19-8.58 3.58-2.19 2.39-3.6 5.81-4.21 10.26h24.73v-1.42c-.08-3.95-1.15-7.01-3.2-9.17-2.06-2.17-4.97-3.25-8.74-3.25zM947 123.01c3.28 0 5.95-.9 8-2.71 2.05-1.8 3.12-4.2 3.2-7.2h16.67c-.04 4.51-1.27 8.64-3.69 12.39s-5.73 6.66-9.93 8.73-8.85 3.11-13.93 3.11c-9.51 0-17.02-3.02-22.51-9.07-5.5-6.05-8.24-14.4-8.24-25.07v-1.17c0-10.25 2.73-18.43 8.18-24.54 5.45-6.11 12.94-9.17 22.45-9.17 8.32 0 15 2.37 20.02 7.1s7.58 11.04 7.66 18.91h-16.67c-.08-3.46-1.15-6.28-3.2-8.44s-4.76-3.25-8.12-3.25c-4.14 0-7.27 1.51-9.38 4.53-2.11 3.02-3.17 7.92-3.17 14.69v1.85c0 6.86 1.04 11.79 3.14 14.79 2.07 3.02 5.25 4.52 9.52 4.52zm55.36-46.2c4.71-5.66 10.64-8.49 17.78-8.49 14.43 0 21.75 8.39 21.96 25.16v42.63h-17.78V93.98c0-3.81-.82-6.63-2.46-8.46-1.64-1.82-4.37-2.74-8.18-2.74-5.21 0-8.98 2.01-11.32 6.03v47.3h-17.78V41.63h17.78v35.18z" class="st2"/><path d="M528.69 245.78h-18.45V207.4h-35.98v38.38H455.8v-89.56h18.45v36.29h35.98v-36.29h18.45v89.56zm12.18-33.9c0-6.6 1.27-12.49 3.81-17.65 2.54-5.17 6.2-9.17 10.98-11.99 4.78-2.83 10.32-4.24 16.64-4.24 8.98 0 16.31 2.75 21.99 8.24 5.68 5.5 8.85 12.96 9.5 22.39l.12 4.55c0 10.21-2.85 18.4-8.55 24.57-5.7 6.17-13.35 9.26-22.94 9.26s-17.25-3.08-22.97-9.23c-5.72-6.15-8.58-14.52-8.58-25.1v-.8zm17.77 1.26c0 6.33 1.19 11.16 3.57 14.51 2.38 3.35 5.78 5.02 10.21 5.02 4.31 0 7.67-1.65 10.09-4.96s3.63-8.59 3.63-15.86c0-6.2-1.21-11.01-3.63-14.42s-5.82-5.11-10.21-5.11c-4.35 0-7.71 1.69-10.09 5.08s-3.57 8.64-3.57 15.74zm72.89-33.92.55 7.44c4.72-5.78 11.09-8.67 19.13-8.67 8.57 0 14.46 3.38 17.65 10.15 4.67-6.77 11.34-10.15 19.99-10.15 7.22 0 12.59 2.1 16.12 6.3 3.53 4.2 5.29 10.53 5.29 18.98v42.5h-17.84v-42.44c0-3.77-.74-6.53-2.21-8.27-1.48-1.74-4.08-2.61-7.81-2.61-5.33 0-9.02 2.54-11.07 7.63l.06 45.7h-17.78V203.4c0-3.85-.76-6.64-2.28-8.37-1.52-1.72-4.1-2.58-7.75-2.58-5.04 0-8.69 2.09-10.95 6.27v47.06h-17.78v-66.56h16.68zm123.03 67.79c-9.76 0-17.71-2.99-23.83-8.98-6.13-5.99-9.2-13.96-9.2-23.93v-1.72c0-6.68 1.29-12.66 3.88-17.93 2.58-5.27 6.24-9.33 10.98-12.18 4.74-2.85 10.14-4.27 16.21-4.27 9.1 0 16.27 2.87 21.5 8.61 5.23 5.74 7.84 13.88 7.84 24.42v7.26h-42.38c.57 4.35 2.31 7.83 5.2 10.46 2.89 2.62 6.55 3.94 10.98 3.94 6.85 0 12.2-2.48 16.05-7.44l8.73 9.78c-2.67 3.77-6.27 6.72-10.83 8.83s-9.6 3.15-15.13 3.15zm-2.03-54.69c-3.53 0-6.39 1.19-8.58 3.58-2.19 2.39-3.6 5.81-4.21 10.26h24.73v-1.42c-.08-3.95-1.15-7.01-3.2-9.18-2.06-2.16-4.97-3.24-8.74-3.24zM871 222.28c0-3.49-1.23-6.16-3.69-8.03-2.46-1.87-6.89-3.83-13.29-5.91-6.4-2.07-11.46-4.11-15.19-6.12-10.17-5.49-15.25-12.9-15.25-22.21 0-4.84 1.36-9.15 4.09-12.95 2.73-3.79 6.64-6.76 11.75-8.89 5.11-2.13 10.83-3.2 17.19-3.2 6.4 0 12.1 1.16 17.1 3.48 5 2.32 8.89 5.59 11.66 9.81 2.77 4.22 4.15 9.02 4.15 14.39h-18.45c0-4.1-1.29-7.29-3.88-9.56-2.58-2.28-6.21-3.41-10.89-3.41-4.51 0-8.02.95-10.52 2.86s-3.75 4.42-3.75 7.54c0 2.91 1.47 5.35 4.4 7.32s7.25 3.81 12.95 5.54c10.5 3.16 18.15 7.07 22.94 11.75 4.8 4.67 7.2 10.5 7.2 17.47 0 7.75-2.93 13.83-8.8 18.24-5.87 4.41-13.76 6.61-23.68 6.61-6.89 0-13.16-1.26-18.82-3.78-5.66-2.52-9.98-5.98-12.95-10.36-2.97-4.39-4.46-9.47-4.46-15.25h18.51c0 9.88 5.91 14.82 17.72 14.82 4.39 0 7.81-.89 10.27-2.68s3.69-4.28 3.69-7.48zm27.06-10.4c0-6.6 1.27-12.49 3.81-17.65s6.2-9.17 10.98-11.99c4.78-2.83 10.32-4.24 16.64-4.24 8.98 0 16.31 2.75 21.99 8.24 5.68 5.5 8.85 12.96 9.5 22.39l.12 4.55c0 10.21-2.85 18.4-8.55 24.57-5.7 6.17-13.35 9.26-22.94 9.26s-17.25-3.08-22.97-9.23c-5.72-6.15-8.58-14.52-8.58-25.1v-.8zm17.78 1.26c0 6.33 1.19 11.16 3.57 14.51 2.38 3.35 5.78 5.02 10.21 5.02 4.31 0 7.67-1.65 10.09-4.96s3.63-8.59 3.63-15.86c0-6.2-1.21-11.01-3.63-14.42s-5.82-5.11-10.21-5.11c-4.35 0-7.71 1.69-10.09 5.08s-3.57 8.64-3.57 15.74zm74.98 32.64h-17.84V151.3h17.84v94.48zm54.5-6.77c-4.39 5.33-10.46 8-18.21 8-7.13 0-12.58-2.05-16.33-6.15-3.75-4.1-5.67-10.11-5.75-18.02v-43.61h17.78v43.05c0 6.94 3.16 10.41 9.47 10.41 6.03 0 10.17-2.09 12.43-6.28v-47.17h17.84v66.56h-16.73l-.5-6.79zm51.91-76.15v16.36h11.38v13.04h-11.38v33.22c0 2.46.47 4.22 1.42 5.29.94 1.07 2.75 1.6 5.41 1.6 1.97 0 3.71-.14 5.23-.43v13.47c-3.49 1.07-7.07 1.6-10.76 1.6-12.47 0-18.82-6.29-19.07-18.88v-35.86h-9.72v-13.04h9.72v-16.36h17.77zm21.16-.86c0-2.67.89-4.86 2.68-6.58 1.78-1.72 4.21-2.58 7.29-2.58 3.03 0 5.45.86 7.26 2.58 1.8 1.72 2.71 3.92 2.71 6.58 0 2.71-.91 4.92-2.74 6.64-1.83 1.72-4.24 2.58-7.23 2.58s-5.4-.86-7.23-2.58c-1.82-1.72-2.74-3.94-2.74-6.64zm18.89 83.78h-17.84v-66.56h17.84v66.56zm11.87-33.9c0-6.6 1.27-12.49 3.81-17.65s6.2-9.17 10.98-11.99c4.78-2.83 10.32-4.24 16.64-4.24 8.98 0 16.31 2.75 21.99 8.24 5.68 5.5 8.85 12.96 9.5 22.39l.12 4.55c0 10.21-2.85 18.4-8.55 24.57-5.7 6.17-13.35 9.26-22.94 9.26s-17.25-3.08-22.97-9.23c-5.72-6.15-8.58-14.52-8.58-25.1v-.8zm17.78 1.26c0 6.33 1.19 11.16 3.57 14.51 2.38 3.35 5.78 5.02 10.21 5.02 4.31 0 7.67-1.65 10.09-4.96s3.63-8.59 3.63-15.86c0-6.2-1.21-11.01-3.63-14.42s-5.82-5.11-10.21-5.11c-4.35 0-7.71 1.69-10.09 5.08s-3.57 8.64-3.57 15.74zm72.58-33.92.55 7.69c4.76-5.95 11.13-8.92 19.13-8.92 7.05 0 12.3 2.07 15.75 6.21 3.44 4.14 5.21 10.33 5.29 18.58v43h-17.78v-42.57c0-3.77-.82-6.51-2.46-8.21-1.64-1.7-4.37-2.55-8.18-2.55-5 0-8.76 2.13-11.26 6.4v46.93h-17.78v-66.56h16.74zm90.24 48.16c0-2.17-1.08-3.88-3.23-5.14-2.15-1.25-5.61-2.37-10.36-3.35-15.83-3.32-23.74-10.05-23.74-20.18 0-5.9 2.45-10.84 7.35-14.79 4.9-3.96 11.31-5.94 19.22-5.94 8.45 0 15.2 1.99 20.27 5.97 5.06 3.98 7.6 9.15 7.6 15.5h-17.78c0-2.54-.82-4.64-2.46-6.3-1.64-1.66-4.2-2.49-7.69-2.49-2.99 0-5.31.68-6.95 2.03-1.64 1.35-2.46 3.08-2.46 5.17 0 1.97.93 3.56 2.8 4.77 1.87 1.21 5.01 2.26 9.44 3.14s8.16 1.88 11.2 2.98c9.39 3.44 14.09 9.41 14.09 17.9 0 6.07-2.61 10.98-7.81 14.73-5.21 3.75-11.93 5.63-20.18 5.63-5.58 0-10.53-1-14.85-2.98-4.33-1.99-7.72-4.72-10.18-8.18s-3.69-7.21-3.69-11.23h16.85c.16 3.16 1.33 5.58 3.51 7.26 2.17 1.68 5.08 2.52 8.73 2.52 3.4 0 5.98-.65 7.72-1.94 1.73-1.29 2.6-2.99 2.6-5.08z"/></svg>