<?xml version="1.0" encoding="utf-8"?>
<!-- Generator: Adobe Illustrator 28.1.0, SVG Export Plug-In . SVG Version: 6.00 Build 0)  -->
<svg version="1.1" id="Layer_1" xmlns="http://www.w3.org/2000/svg" xmlns:xlink="http://www.w3.org/1999/xlink" x="0px" y="0px"
	 viewBox="0 0 1366 305.4" style="enable-background:new 0 0 1366 305.4;" xml:space="preserve">
<style type="text/css">
	.st0{fill:#FFFFFF;}
</style>
<path class="st0" d="M326.6,186.1c-1.4,42.3-18.7,71.2-51,90.1c-33.3,19.5-67.6,18.9-100.3-1.4c-33.7-20.9-49.7-52.5-47.5-92.8
	c1.1-20.8,9.8-39.3,21.6-56.1c12.1-17.3,24.6-34.4,36.8-51.6c11.7-16.5,23.3-33,34.9-49.6c3.9-5.6,8-5.5,11.7-0.1
	C243.7,40,254.2,55.5,265,70.9c9.5,13.6,19.2,27.1,28.9,40.5c11.3,15.6,23.2,30.9,28.2,50.2C324.5,170.8,325.6,180.4,326.6,186.1
	L326.6,186.1z M227.1,127.2c-29.9-0.6-56.3,24.8-56.9,54.8c-0.7,34.4,23.1,60.6,55.6,61.3c31.2,0.7,57.3-24.4,58-55.8
	C284.6,153.8,260.3,127.9,227.1,127.2L227.1,127.2z M289.7,183.7c0,4.2-0.1,8.5,0.1,12.7c0.1,1.4,1,4.1,1.2,4.1
	c4.2-0.5,11.9-1,12-2.2c0.9-9.4,0.9-19-0.3-28.3c-0.2-1.5-7.6-2.1-11.7-2.8c-0.2,0-1.1,3-1.2,4.7
	C289.6,175.8,289.7,179.8,289.7,183.7L289.7,183.7z M184.2,252.6c0.8,0.7,1.6,1.4,2.5,2.1c2.2-3.4,4.7-6.6,6.4-10.1
	c0.4-0.9-1.7-3.3-3-4.7c-5.1-5.4-10.5-10.6-15.4-16.1c-4.7-5.2-7.2,0.2-9.5,2.3c-1.3,1.2-1.5,5.9-0.2,7.4
	c5.2,6.2,11.1,11.8,16.8,17.5C182.4,251.6,183.3,252,184.2,252.6L184.2,252.6z M285.6,149.6c1.2-1.7,3.8-4.5,5.3-7.8
	c0.6-1.2-1-4.1-2.3-5.5c-5.4-5.8-11-11.4-16.9-16.7c-1-0.9-4.3-0.9-5.3,0.1c-2.3,2.1-5.8,6.8-5.4,7.3c6.5,7.6,13.6,14.6,20.6,21.8
	C281.9,149.1,282.5,149,285.6,149.6z M170.2,150.1c1.9-1.1,2.9-1.5,3.6-2.2c6.2-6.4,12.6-12.8,18.3-19.7c0.7-0.9-1.6-5.4-3.4-7.2
	c-1.4-1.4-5.3-2.5-6.3-1.6c-6,5.4-11.6,11.3-17.1,17.2c-1.2,1.3-2.9,4-2.4,4.8C164.9,144.5,167.7,147.2,170.2,150.1z M267.2,254.4
	c0.7-0.7,1.5-1.5,2.2-2.2c0.5-0.2,1.2-0.2,1.6-0.6c6.5-6.6,13.3-12.9,19.2-20c0.8-0.9-2.2-5.8-4.3-8.1c-0.9-1.1-4.6-1.2-5.7-0.2
	c-5.8,5.2-11.2,10.9-16.6,16.6c-1.2,1.3-3.2,3.6-2.8,4.5C262.5,247.9,265,251.1,267.2,254.4z M164.3,183.9h-0.1
	c0-4.1,0.2-8.1-0.1-12.1c-0.1-1.6-1.7-4.6-2.4-4.5c-4.2,0.5-10.8-3.2-11.3,5.1c-0.4,6.2,0.4,12.6-0.2,18.8
	c-0.7,7.6,1.7,11.5,9.5,9.6c1.8-0.4,4.1-2.8,4.4-4.5C164.7,192.2,164.3,188,164.3,183.9L164.3,183.9z M227.6,250.6
	c-3.9,0-7.8-0.2-11.6,0.1c-1.7,0.1-4.6,1.5-4.6,2.3c0.1,4.4-2.8,10.8,5.2,11.2c6.1,0.3,12.3,0,18.4,0.1c4.6,0.1,8.3,0,9-6.5
	c0.8-7.5-2.9-7.6-8.1-7.1C233.1,250.8,230.4,250.6,227.6,250.6z M227.5,120.3c3.9,0,7.8,0.3,11.6-0.1c1.7-0.2,4.5-1.6,4.6-2.6
	c0.1-4.4,2.2-10.5-5.4-10.8c-6.6-0.3-13.3,0.2-19.9-0.2c-5.8-0.4-7.3,2.2-7.9,7.6c-0.6,6.4,2.6,6.4,7,6.1
	C220.8,120.1,224.2,120.3,227.5,120.3L227.5,120.3z"/>
<path class="st0" d="M104.5,103.6c0-4.5,0.4-9.1-0.2-13.6c-0.2-1.8-2.6-4.7-3.9-4.6c-1.8,0.1-4.4,2.2-4.9,4
	c-0.8,2.9-0.2,6.3-0.3,9.5c0,1.4-0.3,2.8-0.4,4.2c-1-0.8-2-1.6-2.9-2.6C78.1,86.6,64.6,72.6,50.7,59c-1.6-1.5-5.2-0.8-8-1.1
	c0.4,2.5,0,5.8,1.4,7.3c13.6,14.4,27.5,28.5,41.2,42.7c0.8,0.8,1.4,1.9,2.1,2.9c-1.1,0.1-2.2,0.2-3.3,0.2c-3.3,0-6.7-0.4-9.9,0.1
	c-1.6,0.3-3.7,2.3-3.9,3.8c-0.2,1.3,1.7,3.1,2.8,4.5c2.7,3.1,5.4,6.2,8.3,9.1c9.9,10.3,19.9,20.5,29.8,30.9c0.7,0.7,1.3,1.7,1.3,2.5
	c-0.1,0.6-1.3,1.5-2.1,1.5C95,164.8,80.5,162,67,154.1c-37.2-21.9-46.1-58-47.6-97.9c-0.2-4.8-0.4-9.7,0.1-14.5
	c0.2-1.8,2.5-4.7,3.9-4.7c32.4-0.9,63.4,4.2,89.2,26.3c16.5,14.1,23,33,21.9,54.7c0,0.8-1.6,2.1-2.4,2.1c-8.3,0.2-16.7,0.2-25,0
	c-0.9,0-2.5-1.8-2.6-2.8c-0.3-4.5-0.1-9.1-0.1-13.6C104.4,103.6,104.5,103.6,104.5,103.6L104.5,103.6z M336,120.2
	c-2.1,0-4.2-0.3-6.2,0.1c-9.2,1.8-10.6-2.6-10-10.9c2-29.5,21.2-52.9,53.3-64c18.3-6.3,37-9.5,56.4-8.4c1.9,0.1,5.3,2.8,5.4,4.3
	c1,21.4-0.2,42.6-7.6,62.9c-11.5,31.6-31.7,53.4-65.7,58.9c-5.9,1-12.1,0.4-18.1,0.4c-0.9,0-1.8-0.9-2.6-1.4c0.6-0.7,1-1.6,1.7-2.1
	c13.8-7.8,24.7-18.6,33.4-31.9c2.2-3.4,5.6-6,8.1-9.2c1-1.3,2.2-3.7,1.7-4.7c-0.9-1.5-3-2.9-4.8-3.2c-4-0.6-8-0.4-12-0.5
	c2.8-3.1,5.5-6.3,8.3-9.3c11.3-12.1,22.8-23.9,34-36.2c1.3-1.5,0.8-4.7,1.1-7.1c-2.6,0.2-6.2-0.6-7.5,0.8
	c-13.6,14-26.9,28.4-40.3,42.7c-0.6,0.7-1.5,1.1-2.2,1.7c-0.1-0.9-0.4-1.8-0.4-2.7c0-3.3,0.8-6.8-0.1-9.8c-0.7-2.3-3.5-3.9-5.4-5.8
	c-1.4,1.8-3.8,3.5-3.9,5.4c-0.4,8.8-0.1,17.6-0.4,26.3c0,1.2-2.2,3.3-3.5,3.4C344.4,120.5,340.2,120.2,336,120.2L336,120.2z"/>
<path class="st0" d="M364.5,231.8c0-11.5,8.9-20.6,20.1-20.6c10.8,0,20.4,9.4,20.3,20c-0.1,11.9-9.2,21.4-20.3,21.3
	C373.5,252.5,364.5,243.2,364.5,231.8L364.5,231.8z M384.4,239.9c2.7-3.6,5.9-6.1,5.6-7.9c-0.4-2.4-3.6-4.2-5.7-6.3
	c-2,2.1-5.1,4-5.6,6.5C378.4,233.9,381.6,236.3,384.4,239.9z M53.9,239.5c-9.6-0.2-17.2-7.8-17.1-17.1c0.1-9.8,8.2-17.6,18-17.5
	c9.2,0.2,16.6,7.9,16.4,17.3C71.1,232.2,63.7,239.6,53.9,239.5z M403.5,181.9c-1,6.9-4.6,11.5-11.5,11.4
	c-6.5-0.1-10.7-4.3-10.5-11.1c0.1-7,4-11.5,11.2-11.4C399.6,170.8,402.6,175.5,403.5,181.9L403.5,181.9z M110.7,27.6
	c0.5-7.4,4.2-11.6,11.2-11.6c6.5,0,10.4,4.2,10.4,10.6c0,6.9-4.2,11.1-11.2,11C114.7,37.5,111.3,33.8,110.7,27.6z M312.1,70.5
	c-3.7,2.6-7.2,6.8-11.3,7.5c-5.8,1.1-9.5-3.3-9.5-9.5c0-6.2,3.8-10.7,9.7-9.8c4,0.6,7.4,4.8,11.1,7.5
	C312.1,67.6,312.1,69.1,312.1,70.5L312.1,70.5z M151.9,77.7c-4.1-6.1-8.4-9.8-8-12.8c0.4-3.3,5.2-6,8.1-9c3,3,7.9,5.8,8.5,9.2
	C160.9,68,156.2,71.7,151.9,77.7z M103.6,198.5c-3.3,2.1-6.7,6-9.9,5.9c-2.8-0.1-5.3-4.8-8-7.5c2.8-2.8,5.3-7.4,8.4-7.9
	c2.8-0.4,6.3,3.6,9.5,5.7C103.6,195.9,103.6,197.2,103.6,198.5z M105,248.5c-5.6,3.5-8.7,7-11.4,6.7c-2.6-0.3-6.8-4.7-6.6-7
	c0.2-2.8,4.2-6.9,6.9-7.2C96.6,240.9,99.6,244.7,105,248.5L105,248.5z M347.7,194.2c4.9-3.1,7.6-6.2,9.9-5.9
	c2.3,0.3,4.2,3.9,6.3,6.1c-2.2,2.1-4.2,5.6-6.6,5.9C355.1,200.6,352.4,197.4,347.7,194.2L347.7,194.2z M336.1,253.4
	c4.2-3.1,6.6-6.2,8.5-5.9c2.4,0.4,4.4,3.6,6.5,5.6c-2,2.1-3.8,5.6-6.1,6C343,259.4,340.4,256.3,336.1,253.4z M286.7,38.4
	c-3.9,2.9-6.4,6-8.3,5.7c-2.2-0.4-5.1-3.8-5.3-6c-0.1-1.8,3.3-5.2,5.4-5.4C280.5,32.5,282.8,35.5,286.7,38.4z M184.4,37.4
	c-3.7,2.6-5.9,5.4-7.8,5.2c-1.9-0.2-4.8-3.3-4.9-5.2c-0.1-1.7,3-4.7,5-4.9C178.4,32.2,180.6,34.9,184.4,37.4z M69,181.1
	c-4.1,2.7-6.4,5.4-8.5,5.2c-1.9-0.2-5.2-3.6-5-5.2c0.3-2.1,3.1-5.2,5.2-5.5C62.7,175.3,65,178.2,69,181.1L69,181.1z M274.3,185.6
	c0,26.1-21.5,47.6-47.4,47.5c-26.4-0.1-47-21.1-46.9-47.9c0-27.1,20.9-47.6,48.2-47.6C253.3,137.6,274.3,159.5,274.3,185.6z
	 M206.3,191.8c0,11.3,9.4,20.5,21.1,20.6c11.4,0.1,20.1-9.2,20.1-21.5c0-11.9-8.9-21.5-20-21.5C215.3,169.3,206.3,178.9,206.3,191.8
	z M226.6,150.8c-19.4,0.2-35.5,15.9-36.1,35.7c-0.1,2,2.4,4,3.7,6c1.6-1.7,4.4-3.3,4.6-5.2c1.3-13,10.7-24.3,22.8-26.7
	c12.1-2.4,24.7,4.2,30.4,15.3c1,1.9,4.2,2.7,6.4,4c0.4-2.4,1.8-5.2,1.1-7.3C255.3,160.1,240.7,150.6,226.6,150.8L226.6,150.8z"/>
<path class="st0" d="M226.8,203.1c-6.6,0-12.1-5.7-12.1-12.4c0-6.4,6.1-12.2,12.7-12.2c6.4,0,11.9,5.6,11.8,12.1
	C239.3,197.7,233.8,203.1,226.8,203.1L226.8,203.1z"/>
<path class="st0" d="M522.8,106.3c-0.7,9.6-4.2,17.2-10.7,22.8c-6.4,5.5-14.9,8.3-25.4,8.3c-11.5,0-20.5-3.9-27.1-11.6
	c-6.6-7.7-9.9-18.3-9.9-31.8v-5.5c0-8.6,1.5-16.2,4.5-22.8s7.4-11.6,13-15.1s12.2-5.3,19.6-5.3c10.3,0,18.7,2.8,25,8.3
	c6.3,5.5,10,13.3,10.9,23.3h-18.5c-0.5-5.8-2.1-10-4.8-12.6c-2.8-2.6-7-3.9-12.6-3.9c-6.1,0-10.8,2.2-13.8,6.6
	c-3.1,4.4-4.6,11.2-4.7,20.5v6.8c0,9.7,1.5,16.8,4.4,21.2s7.6,6.7,13.9,6.7c5.7,0,10-1.3,12.8-3.9c2.8-2.6,4.4-6.6,4.8-12.1
	L522.8,106.3L522.8,106.3z M552.5,136.1h-17.8V41.6h17.8V136.1z M597.7,137.3c-9.8,0-17.7-3-23.8-9c-6.1-6-9.2-14-9.2-23.9v-1.7
	c0-6.7,1.3-12.7,3.9-17.9c2.6-5.3,6.2-9.3,11-12.2s10.1-4.3,16.2-4.3c9.1,0,16.3,2.9,21.5,8.6s7.8,13.9,7.8,24.4v7.3h-42.4
	c0.6,4.3,2.3,7.8,5.2,10.5c2.9,2.6,6.5,3.9,11,3.9c6.8,0,12.2-2.5,16-7.4l8.7,9.8c-2.7,3.8-6.3,6.7-10.8,8.8
	C608.3,136.3,603.3,137.3,597.7,137.3L597.7,137.3z M595.7,82.7c-3.5,0-6.4,1.2-8.6,3.6s-3.6,5.8-4.2,10.3h24.7v-1.4
	c-0.1-3.9-1.2-7-3.2-9.2C602.4,83.7,599.5,82.7,595.7,82.7L595.7,82.7z M673.8,136.1c-0.8-1.6-1.4-3.6-1.8-6
	c-4.3,4.8-9.9,7.2-16.8,7.2c-6.5,0-11.9-1.9-16.2-5.7c-4.3-3.8-6.4-8.5-6.4-14.3c0-7.1,2.6-12.5,7.8-16.2c5.2-3.8,12.8-5.7,22.7-5.7
	h8.2v-3.8c0-3.1-0.8-5.5-2.4-7.4c-1.6-1.8-4.1-2.8-7.5-2.8c-3,0-5.3,0.7-7,2.2c-1.7,1.4-2.5,3.4-2.5,5.9H634c0-3.8,1.2-7.4,3.6-10.7
	s5.7-5.8,10.1-7.7s9.2-2.8,14.6-2.8c8.2,0,14.7,2.1,19.5,6.2s7.2,9.9,7.2,17.4v28.8c0,6.3,0.9,11.1,2.6,14.3v1.1H673.8L673.8,136.1z
	 M659.1,123.8c2.6,0,5-0.6,7.3-1.8c2.2-1.2,3.8-2.7,4.9-4.7v-11.4h-6.6c-8.9,0-13.6,3.1-14.2,9.2l-0.1,1.1c0,2.2,0.8,4,2.3,5.5
	C654.2,123,656.4,123.8,659.1,123.8z M719.1,69.6l0.5,7.7c4.8-5.9,11.1-8.9,19.1-8.9c7,0,12.3,2.1,15.8,6.2
	c3.4,4.1,5.2,10.3,5.3,18.6v43H742V93.6c0-3.8-0.8-6.5-2.5-8.2s-4.4-2.6-8.2-2.6c-5,0-8.8,2.1-11.3,6.4v46.9h-17.8V69.6H719.1
	L719.1,69.6z"/>
<path class="st0" d="M841.9,61.5h-27.4v74.6H796V61.5h-27.1v-15h73V61.5z M881.9,137.3c-9.8,0-17.7-3-23.8-9c-6.1-6-9.2-14-9.2-23.9
	v-1.7c0-6.7,1.3-12.7,3.9-17.9c2.6-5.3,6.2-9.3,11-12.2s10.1-4.3,16.2-4.3c9.1,0,16.3,2.9,21.5,8.6s7.8,13.9,7.8,24.4v7.3h-42.4
	c0.6,4.3,2.3,7.8,5.2,10.5c2.9,2.6,6.5,3.9,11,3.9c6.8,0,12.2-2.5,16-7.4l8.7,9.8c-2.7,3.8-6.3,6.7-10.8,8.8
	C892.4,136.3,887.4,137.3,881.9,137.3L881.9,137.3z M879.8,82.7c-3.5,0-6.4,1.2-8.6,3.6s-3.6,5.8-4.2,10.3h24.7v-1.4
	c-0.1-3.9-1.2-7-3.2-9.2C886.5,83.7,883.6,82.7,879.8,82.7L879.8,82.7z M947,123c3.3,0,6-0.9,8-2.7c2-1.8,3.1-4.2,3.2-7.2h16.7
	c0,4.5-1.3,8.6-3.7,12.4s-5.7,6.7-9.9,8.7s-8.8,3.1-13.9,3.1c-9.5,0-17-3-22.5-9.1c-5.5-6.1-8.2-14.4-8.2-25.1V102
	c0-10.2,2.7-18.4,8.2-24.5s12.9-9.2,22.5-9.2c8.3,0,15,2.4,20,7.1s7.6,11,7.7,18.9h-16.7c-0.1-3.5-1.2-6.3-3.2-8.4s-4.8-3.2-8.1-3.2
	c-4.1,0-7.3,1.5-9.4,4.5s-3.2,7.9-3.2,14.7v1.8c0,6.9,1,11.8,3.1,14.8C939.6,121.5,942.7,123,947,123L947,123z M1002.4,76.8
	c4.7-5.7,10.6-8.5,17.8-8.5c14.4,0,21.8,8.4,22,25.2v42.6h-17.8V94c0-3.8-0.8-6.6-2.5-8.5c-1.6-1.8-4.4-2.7-8.2-2.7
	c-5.2,0-9,2-11.3,6v47.3h-17.8V41.6h17.8L1002.4,76.8L1002.4,76.8z"/>
<path class="st0" d="M528.7,245.8h-18.5v-38.4h-36v38.4h-18.5v-89.6h18.5v36.3h36v-36.3h18.4L528.7,245.8L528.7,245.8z M540.9,211.9
	c0-6.6,1.3-12.5,3.8-17.6c2.5-5.2,6.2-9.2,11-12c4.8-2.8,10.3-4.2,16.6-4.2c9,0,16.3,2.8,22,8.2c5.7,5.5,8.8,13,9.5,22.4l0.1,4.6
	c0,10.2-2.8,18.4-8.5,24.6S582,247,572.4,247s-17.2-3.1-23-9.2s-8.6-14.5-8.6-25.1V211.9L540.9,211.9z M558.6,213.1
	c0,6.3,1.2,11.2,3.6,14.5c2.4,3.4,5.8,5,10.2,5c4.3,0,7.7-1.6,10.1-5s3.6-8.6,3.6-15.9c0-6.2-1.2-11-3.6-14.4s-5.8-5.1-10.2-5.1
	c-4.3,0-7.7,1.7-10.1,5.1S558.6,206,558.6,213.1z M631.5,179.2l0.5,7.4c4.7-5.8,11.1-8.7,19.1-8.7c8.6,0,14.5,3.4,17.7,10.1
	c4.7-6.8,11.3-10.1,20-10.1c7.2,0,12.6,2.1,16.1,6.3c3.5,4.2,5.3,10.5,5.3,19v42.5h-17.8v-42.4c0-3.8-0.7-6.5-2.2-8.3
	c-1.5-1.7-4.1-2.6-7.8-2.6c-5.3,0-9,2.5-11.1,7.6l0.1,45.7h-17.8v-42.4c0-3.9-0.8-6.6-2.3-8.4c-1.5-1.7-4.1-2.6-7.8-2.6
	c-5,0-8.7,2.1-11,6.3v47.1h-17.8v-66.6H631.5L631.5,179.2z M754.6,247c-9.8,0-17.7-3-23.8-9c-6.1-6-9.2-14-9.2-23.9v-1.7
	c0-6.7,1.3-12.7,3.9-17.9c2.6-5.3,6.2-9.3,11-12.2c4.7-2.9,10.1-4.3,16.2-4.3c9.1,0,16.3,2.9,21.5,8.6s7.8,13.9,7.8,24.4v7.3h-42.4
	c0.6,4.4,2.3,7.8,5.2,10.5c2.9,2.6,6.5,3.9,11,3.9c6.8,0,12.2-2.5,16-7.4l8.7,9.8c-2.7,3.8-6.3,6.7-10.8,8.8S760.1,247,754.6,247
	L754.6,247z M752.5,192.3c-3.5,0-6.4,1.2-8.6,3.6s-3.6,5.8-4.2,10.3h24.7v-1.4c-0.1-3.9-1.2-7-3.2-9.2
	C759.2,193.4,756.3,192.3,752.5,192.3L752.5,192.3z M871,222.3c0-3.5-1.2-6.2-3.7-8s-6.9-3.8-13.3-5.9c-6.4-2.1-11.5-4.1-15.2-6.1
	c-10.2-5.5-15.2-12.9-15.2-22.2c0-4.8,1.4-9.1,4.1-12.9c2.7-3.8,6.6-6.8,11.8-8.9s10.8-3.2,17.2-3.2c6.4,0,12.1,1.2,17.1,3.5
	c5,2.3,8.9,5.6,11.7,9.8c2.8,4.2,4.2,9,4.2,14.4h-18.5c0-4.1-1.3-7.3-3.9-9.6c-2.6-2.3-6.2-3.4-10.9-3.4c-4.5,0-8,0.9-10.5,2.9
	s-3.8,4.4-3.8,7.5c0,2.9,1.5,5.4,4.4,7.3s7.2,3.8,13,5.5c10.5,3.2,18.2,7.1,22.9,11.8c4.8,4.7,7.2,10.5,7.2,17.5
	c0,7.8-2.9,13.8-8.8,18.2S867,247,857,247c-6.9,0-13.2-1.3-18.8-3.8c-5.7-2.5-10-6-13-10.4c-3-4.4-4.5-9.5-4.5-15.2h18.5
	c0,9.9,5.9,14.8,17.7,14.8c4.4,0,7.8-0.9,10.3-2.7S871,225.5,871,222.3L871,222.3z M898.1,211.9c0-6.6,1.3-12.5,3.8-17.6
	s6.2-9.2,11-12c4.8-2.8,10.3-4.2,16.6-4.2c9,0,16.3,2.8,22,8.2c5.7,5.5,8.8,13,9.5,22.4l0.1,4.6c0,10.2-2.8,18.4-8.5,24.6
	s-13.3,9.3-22.9,9.3s-17.2-3.1-23-9.2s-8.6-14.5-8.6-25.1V211.9L898.1,211.9z M915.8,213.1c0,6.3,1.2,11.2,3.6,14.5
	c2.4,3.4,5.8,5,10.2,5c4.3,0,7.7-1.6,10.1-5s3.6-8.6,3.6-15.9c0-6.2-1.2-11-3.6-14.4s-5.8-5.1-10.2-5.1c-4.3,0-7.7,1.7-10.1,5.1
	S915.8,206,915.8,213.1z M990.8,245.8H973v-94.5h17.8V245.8z M1045.3,239c-4.4,5.3-10.5,8-18.2,8c-7.1,0-12.6-2.1-16.3-6.1
	c-3.8-4.1-5.7-10.1-5.8-18v-43.6h17.8v43.1c0,6.9,3.2,10.4,9.5,10.4c6,0,10.2-2.1,12.4-6.3v-47.2h17.8v66.6h-16.7L1045.3,239
	L1045.3,239z M1097.2,162.9v16.4h11.4v13h-11.4v33.2c0,2.5,0.5,4.2,1.4,5.3c0.9,1.1,2.8,1.6,5.4,1.6c2,0,3.7-0.1,5.2-0.4v13.5
	c-3.5,1.1-7.1,1.6-10.8,1.6c-12.5,0-18.8-6.3-19.1-18.9v-35.9h-9.7v-13h9.7v-16.4L1097.2,162.9L1097.2,162.9z M1118.4,162
	c0-2.7,0.9-4.9,2.7-6.6c1.8-1.7,4.2-2.6,7.3-2.6c3,0,5.4,0.9,7.3,2.6c1.8,1.7,2.7,3.9,2.7,6.6c0,2.7-0.9,4.9-2.7,6.6
	s-4.2,2.6-7.2,2.6s-5.4-0.9-7.2-2.6C1119.3,166.9,1118.4,164.7,1118.4,162L1118.4,162z M1137.3,245.8h-17.8v-66.6h17.8V245.8z
	 M1149.2,211.9c0-6.6,1.3-12.5,3.8-17.6s6.2-9.2,11-12c4.8-2.8,10.3-4.2,16.6-4.2c9,0,16.3,2.8,22,8.2c5.7,5.5,8.8,13,9.5,22.4
	l0.1,4.6c0,10.2-2.8,18.4-8.6,24.6c-5.7,6.2-13.3,9.3-22.9,9.3s-17.2-3.1-23-9.2s-8.6-14.5-8.6-25.1L1149.2,211.9L1149.2,211.9z
	 M1166.9,213.1c0,6.3,1.2,11.2,3.6,14.5c2.4,3.4,5.8,5,10.2,5c4.3,0,7.7-1.6,10.1-5s3.6-8.6,3.6-15.9c0-6.2-1.2-11-3.6-14.4
	s-5.8-5.1-10.2-5.1c-4.3,0-7.7,1.7-10.1,5.1S1166.9,206,1166.9,213.1z M1239.5,179.2l0.6,7.7c4.8-5.9,11.1-8.9,19.1-8.9
	c7.1,0,12.3,2.1,15.8,6.2c3.4,4.1,5.2,10.3,5.3,18.6v43h-17.8v-42.6c0-3.8-0.8-6.5-2.5-8.2c-1.6-1.7-4.4-2.6-8.2-2.6
	c-5,0-8.8,2.1-11.3,6.4v46.9h-17.8v-66.6H1239.5z M1329.8,227.4c0-2.2-1.1-3.9-3.2-5.1c-2.2-1.2-5.6-2.4-10.4-3.4
	c-15.8-3.3-23.7-10.1-23.7-20.2c0-5.9,2.4-10.8,7.3-14.8c4.9-4,11.3-5.9,19.2-5.9c8.4,0,15.2,2,20.3,6c5.1,4,7.6,9.1,7.6,15.5h-17.8
	c0-2.5-0.8-4.6-2.5-6.3s-4.2-2.5-7.7-2.5c-3,0-5.3,0.7-6.9,2c-1.6,1.4-2.5,3.1-2.5,5.2c0,2,0.9,3.6,2.8,4.8s5,2.3,9.4,3.1
	s8.2,1.9,11.2,3c9.4,3.4,14.1,9.4,14.1,17.9c0,6.1-2.6,11-7.8,14.7c-5.2,3.8-11.9,5.6-20.2,5.6c-5.6,0-10.5-1-14.8-3
	c-4.3-2-7.7-4.7-10.2-8.2s-3.7-7.2-3.7-11.2h16.8c0.2,3.2,1.3,5.6,3.5,7.3c2.2,1.7,5.1,2.5,8.7,2.5c3.4,0,6-0.6,7.7-1.9
	C1328.9,231.2,1329.8,229.5,1329.8,227.4L1329.8,227.4z"/>
</svg>
