<svg width="93" height="83" viewBox="0 0 93 83" fill="none" xmlns="http://www.w3.org/2000/svg">
<path d="M49.4062 12.4375C35.1293 12.4375 23.0502 21.792 18.9451 34.6885C25.0482 31.6006 31.9324 29.875 39.2344 29.875H55.2188C56.8172 29.875 58.125 31.1828 58.125 32.7812C58.125 34.3797 56.8172 35.6875 55.2188 35.6875H52.3125H39.2344C36.2191 35.6875 33.2947 36.0326 30.4611 36.6684C25.7566 37.74 21.3973 39.6473 17.492 42.2447C6.95684 49.2742 0 61.2807 0 74.9219V77.8281C0 80.2439 1.94355 82.1875 4.35938 82.1875C6.7752 82.1875 8.71875 80.2439 8.71875 77.8281V74.9219C8.71875 66.076 12.4787 58.1201 18.491 52.5438C22.0875 66.2576 34.5662 76.375 49.4062 76.375H49.5879C73.5826 76.2479 93 52.5982 93 23.4449C93 15.707 91.6377 8.35059 89.1674 1.7207C88.6951 0.467385 86.8605 0.521877 86.2248 1.70254C82.81 8.09629 76.0529 12.4375 68.2969 12.4375H49.4062Z" fill="white"/>
</svg>
