<svg width="117" height="93" viewBox="0 0 117 93" fill="none" xmlns="http://www.w3.org/2000/svg">
<path d="M40.8303 46.5C47.0182 46.5 52.9527 44.0505 57.3282 39.6902C61.7037 35.33 64.1618 29.4163 64.1618 23.25C64.1618 17.0837 61.7037 11.17 57.3282 6.80977C52.9527 2.44955 47.0182 0 40.8303 0C34.6423 0 28.7079 2.44955 24.3323 6.80977C19.9568 11.17 17.4987 17.0837 17.4987 23.25C17.4987 29.4163 19.9568 35.33 24.3323 39.6902C28.7079 44.0505 34.6423 46.5 40.8303 46.5ZM32.5002 55.2188C14.5458 55.2188 0 69.7137 0 87.6053C0 90.5842 2.4243 93 5.41366 93H58.8393C58.2743 91.4016 58.1649 89.6578 58.5841 87.9504L61.3183 77.0338C61.8287 74.9813 62.8859 73.1285 64.3806 71.6391L71.7264 64.3189C65.8753 58.6881 57.9279 55.2188 49.1421 55.2188H32.5002ZM111.882 42.8127C109.039 39.9791 104.427 39.9791 101.565 42.8127L96.2063 48.1529L109.148 61.0494L114.507 55.7092C117.351 52.8756 117.351 48.2801 114.507 45.4283L111.882 42.8127ZM68.5183 75.7441C67.7709 76.4889 67.2423 77.4152 66.9872 78.4506L64.253 89.3672C63.9978 90.3662 64.2894 91.4016 65.0186 92.1281C65.7477 92.8547 66.7866 93.1453 67.7892 92.891L78.7441 90.1664C79.7648 89.9121 80.7127 89.3854 81.46 88.6406L105.01 65.1545L92.0686 52.258L68.5183 75.7441Z" fill="white"/>
</svg>
