<svg width="118" height="83" viewBox="0 0 118 83" fill="none" xmlns="http://www.w3.org/2000/svg">
<path d="M13.275 10.9844C13.275 8.28663 14.3628 5.69937 16.2991 3.79177C18.2354 1.88418 20.8616 0.8125 23.6 0.8125C26.3384 0.8125 28.9646 1.88418 30.9009 3.79177C32.8372 5.69937 33.925 8.28663 33.925 10.9844C33.925 13.6821 32.8372 16.2694 30.9009 18.177C28.9646 20.0846 26.3384 21.1562 23.6 21.1562C20.8616 21.1562 18.2354 20.0846 16.2991 18.177C14.3628 16.2694 13.275 13.6821 13.275 10.9844ZM11.8 39.6291C9.95625 41.6635 8.85 44.3699 8.85 47.3125C8.85 50.2551 9.95625 52.9615 11.8 54.9959V39.6291ZM38.4237 30.6742C32.9478 35.4514 29.5 42.4445 29.5 50.2188C29.5 56.449 31.7125 62.1707 35.4 66.6572V70.5625C35.4 73.7775 32.7634 76.375 29.5 76.375H17.7C14.4366 76.375 11.8 73.7775 11.8 70.5625V65.6945C4.83063 62.425 0 55.4318 0 47.3125C0 36.0689 9.23719 26.9688 20.65 26.9688H26.55C30.975 26.9688 35.0681 28.3311 38.4237 30.6561V30.6742ZM82.6 70.5625V66.6572C86.2875 62.1707 88.5 56.449 88.5 50.2188C88.5 42.4445 85.0522 35.4514 79.5763 30.6561C82.9319 28.3311 87.025 26.9688 91.45 26.9688H97.35C108.763 26.9688 118 36.0689 118 47.3125C118 55.4318 113.169 62.425 106.2 65.6945V70.5625C106.2 73.7775 103.563 76.375 100.3 76.375H88.5C85.2366 76.375 82.6 73.7775 82.6 70.5625ZM84.075 10.9844C84.075 8.28663 85.1628 5.69937 87.0991 3.79177C89.0354 1.88418 91.6616 0.8125 94.4 0.8125C97.1384 0.8125 99.7646 1.88418 101.701 3.79177C103.637 5.69937 104.725 8.28663 104.725 10.9844C104.725 13.6821 103.637 16.2694 101.701 18.177C99.7646 20.0846 97.1384 21.1562 94.4 21.1562C91.6616 21.1562 89.0354 20.0846 87.0991 18.177C85.1628 16.2694 84.075 13.6821 84.075 10.9844ZM106.2 39.6291V55.0141C108.044 52.9615 109.15 50.2732 109.15 47.3307C109.15 44.3881 108.044 41.6816 106.2 39.6473V39.6291ZM59 0.8125C62.1296 0.8125 65.1309 2.03727 67.3439 4.21738C69.5568 6.39749 70.8 9.35436 70.8 12.4375C70.8 15.5206 69.5568 18.4775 67.3439 20.6576C65.1309 22.8377 62.1296 24.0625 59 24.0625C55.8704 24.0625 52.8691 22.8377 50.6561 20.6576C48.4432 18.4775 47.2 15.5206 47.2 12.4375C47.2 9.35436 48.4432 6.39749 50.6561 4.21738C52.8691 2.03727 55.8704 0.8125 59 0.8125ZM44.25 50.2188C44.25 53.1613 45.3563 55.8496 47.2 57.9021V42.5354C45.3563 44.5879 44.25 47.2762 44.25 50.2188ZM70.8 42.5354V57.9203C72.6438 55.8678 73.75 53.1795 73.75 50.2369C73.75 47.2943 72.6438 44.5879 70.8 42.5535V42.5354ZM82.6 50.2188C82.6 58.3381 77.7694 65.3313 70.8 68.6008V76.375C70.8 79.59 68.1634 82.1875 64.9 82.1875H53.1C49.8366 82.1875 47.2 79.59 47.2 76.375V68.6008C40.2306 65.3313 35.4 58.3381 35.4 50.2188C35.4 38.9752 44.6372 29.875 56.05 29.875H61.95C73.3628 29.875 82.6 38.9752 82.6 50.2188Z" fill="white"/>
</svg>
