<svg width="93" height="93" viewBox="0 0 93 93" fill="none" xmlns="http://www.w3.org/2000/svg">
<path d="M31.9688 4.35938C31.9688 1.94355 30.0252 0 27.6094 0C25.1936 0 23.25 1.94355 23.25 4.35938V11.625C16.8381 11.625 11.625 16.8381 11.625 23.25H4.35938C1.94355 23.25 0 25.1936 0 27.6094C0 30.0252 1.94355 31.9688 4.35938 31.9688H11.625V42.1406H4.35938C1.94355 42.1406 0 44.0842 0 46.5C0 48.9158 1.94355 50.8594 4.35938 50.8594H11.625V61.0312H4.35938C1.94355 61.0312 0 62.9748 0 65.3906C0 67.8064 1.94355 69.75 4.35938 69.75H11.625C11.625 76.1619 16.8381 81.375 23.25 81.375V88.6406C23.25 91.0564 25.1936 93 27.6094 93C30.0252 93 31.9688 91.0564 31.9688 88.6406V81.375H42.1406V88.6406C42.1406 91.0564 44.0842 93 46.5 93C48.9158 93 50.8594 91.0564 50.8594 88.6406V81.375H61.0312V88.6406C61.0312 91.0564 62.9748 93 65.3906 93C67.8064 93 69.75 91.0564 69.75 88.6406V81.375C76.1619 81.375 81.375 76.1619 81.375 69.75H88.6406C91.0564 69.75 93 67.8064 93 65.3906C93 62.9748 91.0564 61.0312 88.6406 61.0312H81.375V50.8594H88.6406C91.0564 50.8594 93 48.9158 93 46.5C93 44.0842 91.0564 42.1406 88.6406 42.1406H81.375V31.9688H88.6406C91.0564 31.9688 93 30.0252 93 27.6094C93 25.1936 91.0564 23.25 88.6406 23.25H81.375C81.375 16.8381 76.1619 11.625 69.75 11.625V4.35938C69.75 1.94355 67.8064 0 65.3906 0C62.9748 0 61.0312 1.94355 61.0312 4.35938V11.625H50.8594V4.35938C50.8594 1.94355 48.9158 0 46.5 0C44.0842 0 42.1406 1.94355 42.1406 4.35938V11.625H31.9688V4.35938ZM29.0625 23.25H63.9375C67.1525 23.25 69.75 25.8475 69.75 29.0625V63.9375C69.75 67.1525 67.1525 69.75 63.9375 69.75H29.0625C25.8475 69.75 23.25 67.1525 23.25 63.9375V29.0625C23.25 25.8475 25.8475 23.25 29.0625 23.25ZM63.9375 29.0625H29.0625V63.9375H63.9375V29.0625Z" fill="white"/>
</svg>
